<svg width="30" height="30" viewBox="0 0 30 30" fill="none" xmlns="http://www.w3.org/2000/svg">
<path d="M26.5627 11.875H24.6877M5.3127 11.875H7.1877M15.9377 1.25V3.125M8.42457 4.3625L9.74957 5.68875M23.4502 4.3625L22.1239 5.68875M16.7571 7.76688C11.2452 12.5781 5.31082 18.6294 3.2027 20.8106C2.70895 21.3213 2.55145 22.0656 2.83582 22.7156C2.99082 23.0688 3.17395 23.4544 3.36332 23.7825C3.5527 24.1106 3.7952 24.4619 4.02395 24.7725C4.44395 25.3444 5.1677 25.5794 5.85645 25.4075C8.79957 24.6719 17.0077 22.5587 23.9302 20.1912" stroke="#757575" stroke-width="1.875" stroke-linecap="round" stroke-linejoin="round"/>
<path d="M13.5079 10.7456C13.5079 10.7456 14.8147 12.0531 17.0304 15.8906C19.246 19.7281 19.7247 21.5138 19.7247 21.5138M14.1854 23.3481L14.5566 24.7344C14.6541 25.0984 14.679 25.478 14.6297 25.8516C14.5805 26.2253 14.4582 26.5855 14.2698 26.9119C14.0813 27.2382 13.8304 27.5242 13.5315 27.7536C13.2325 27.983 12.8912 28.1512 12.5272 28.2487C12.1632 28.3463 11.7836 28.3711 11.41 28.3219C11.0363 28.2727 10.6761 28.1504 10.3497 27.9619C10.0234 27.7735 9.73737 27.5226 9.50799 27.2236C9.27861 26.9246 9.11036 26.5834 9.01285 26.2194L8.7041 25.0644M16.2791 6.9375C16.2791 6.9375 17.7772 8.57563 20.7579 13.7387C23.7385 18.9019 24.4085 21.0181 24.4085 21.0181" stroke="#757575" stroke-width="1.875" stroke-linecap="round" stroke-linejoin="round"/>
</svg>
