<svg width="30" height="30" viewBox="0 0 30 30" fill="none" xmlns="http://www.w3.org/2000/svg">
<path d="M15.3499 13.5918C14.4126 13.5819 13.4992 13.295 12.7247 12.7671C11.9502 12.2392 11.3491 11.4939 10.9973 10.6251C10.6454 9.75638 10.5585 8.80292 10.7474 7.88483C10.9362 6.96674 11.3925 6.12505 12.0588 5.46575C12.725 4.80644 13.5714 4.35899 14.4915 4.17972C15.4115 4.00046 16.364 4.0974 17.229 4.45834C18.0941 4.81928 18.833 5.42808 19.3527 6.20809C19.8725 6.98811 20.1499 7.90446 20.1499 8.84178C20.1411 10.1075 19.631 11.3181 18.7313 12.2085C17.8316 13.0988 16.6157 13.5962 15.3499 13.5918ZM15.3499 5.75845C14.7423 5.7683 14.1512 5.95748 13.6507 6.30221C13.1503 6.64695 12.7629 7.13187 12.5372 7.69607C12.3115 8.26028 12.2575 8.8786 12.382 9.47337C12.5066 10.0682 12.8041 10.6129 13.2373 11.0391C13.6704 11.4653 14.2198 11.754 14.8165 11.869C15.4132 11.984 16.0306 11.9201 16.5911 11.6853C17.1516 11.4505 17.6302 11.0554 17.9669 10.5495C18.3035 10.0436 18.4832 9.44946 18.4832 8.84178C18.4744 8.01808 18.1399 7.23137 17.5528 6.6536C16.9656 6.07583 16.1736 5.75399 15.3499 5.75845Z" fill="#1E1E1E"/>
<path d="M15.35 13.5918C14.4127 13.5819 13.4993 13.295 12.7248 12.7671C11.9503 12.2392 11.3492 11.4939 10.9974 10.6251C10.6455 9.75638 10.5586 8.80292 10.7474 7.88483C10.9363 6.96674 11.3926 6.12505 12.0589 5.46575C12.7251 4.80644 13.5715 4.35899 14.4916 4.17972C15.4116 4.00046 16.3641 4.0974 17.2291 4.45834C18.0941 4.81928 18.8331 5.42808 19.3528 6.20809C19.8726 6.98811 20.1499 7.90446 20.15 8.84178C20.1412 10.1075 19.6311 11.3181 18.7314 12.2085C17.8317 13.0988 16.6157 13.5962 15.35 13.5918ZM15.35 5.75845C14.7424 5.7683 14.1513 5.95748 13.6508 6.30221C13.1504 6.64695 12.763 7.13187 12.5373 7.69607C12.3115 8.26028 12.2576 8.8786 12.3821 9.47337C12.5067 10.0682 12.8042 10.6129 13.2374 11.0391C13.6705 11.4653 14.2199 11.754 14.8166 11.869C15.4133 11.984 16.0307 11.9201 16.5912 11.6853C17.1517 11.4505 17.6303 11.0554 17.967 10.5495C18.3036 10.0436 18.4833 9.44946 18.4833 8.84178C18.4745 8.01808 18.14 7.23137 17.5529 6.6536C16.9657 6.07583 16.1737 5.75399 15.35 5.75845ZM18.2583 14.7084C14.5621 14.0653 10.757 14.6507 7.425 16.3751C7.18848 16.5064 6.99263 16.7003 6.85888 16.9355C6.72513 17.1706 6.65864 17.438 6.66667 17.7084V20.6751C6.66667 20.8961 6.75446 21.1081 6.91074 21.2644C7.06702 21.4206 7.27899 21.5084 7.5 21.5084C7.72101 21.5084 7.93297 21.4206 8.08925 21.2644C8.24553 21.1081 8.33333 20.8961 8.33333 20.6751V17.8168C11.4231 16.2665 14.9367 15.7746 18.3333 16.4168L18.2583 14.7084Z" fill="#1E1E1E"/>
<path d="M27.5002 18.3333H21.9168V17.0999C21.9168 16.8789 21.829 16.667 21.6728 16.5107C21.5165 16.3544 21.3045 16.2666 21.0835 16.2666C20.8625 16.2666 20.6505 16.3544 20.4942 16.5107C20.338 16.667 20.2502 16.8789 20.2502 17.0999V18.3333H14.1668C13.9458 18.3333 13.7339 18.4211 13.5776 18.5773C13.4213 18.7336 13.3335 18.9456 13.3335 19.1666V27.4999C13.3335 27.7209 13.4213 27.9329 13.5776 28.0892C13.7339 28.2455 13.9458 28.3333 14.1668 28.3333H27.5002C27.7212 28.3333 27.9331 28.2455 28.0894 28.0892C28.2457 27.9329 28.3335 27.7209 28.3335 27.4999V19.1666C28.3335 18.9456 28.2457 18.7336 28.0894 18.5773C27.9331 18.4211 27.7212 18.3333 27.5002 18.3333ZM26.6668 26.6666H15.0002V19.9999H20.2502V20.3416C20.2502 20.5626 20.338 20.7746 20.4942 20.9309C20.6505 21.0871 20.8625 21.1749 21.0835 21.1749C21.3045 21.1749 21.5165 21.0871 21.6728 20.9309C21.829 20.7746 21.9168 20.5626 21.9168 20.3416V19.9999H26.6668V26.6666Z" fill="#1E1E1E"/>
<path d="M18.1748 22.8499H23.1415V24.0166H18.1748V22.8499ZM9.03317 10.1999C6.72604 10.2385 4.45892 10.8089 2.40817 11.8666C2.18514 11.9844 1.99832 12.1606 1.86768 12.3764C1.73705 12.5922 1.66751 12.8394 1.6665 13.0916V15.6749C1.6665 15.8959 1.7543 16.1079 1.91058 16.2642C2.06686 16.4205 2.27882 16.5083 2.49984 16.5083C2.72085 16.5083 2.93281 16.4205 3.08909 16.2642C3.24537 16.1079 3.33317 15.8959 3.33317 15.6749V13.2583C5.29259 12.283 7.46197 11.805 9.64984 11.8666C9.36381 11.3442 9.15603 10.7827 9.03317 10.1999ZM27.5915 11.8583C25.7522 10.8934 23.7308 10.3256 21.6582 10.1916C21.5357 10.7733 21.3308 11.3345 21.0498 11.8583C23.0024 11.9053 24.9203 12.3833 26.6665 13.2583V15.6749C26.6665 15.8959 26.7543 16.1079 26.9106 16.2642C27.0669 16.4205 27.2788 16.5083 27.4998 16.5083C27.7209 16.5083 27.9328 16.4205 28.0891 16.2642C28.2454 16.1079 28.3332 15.8959 28.3332 15.6749V13.0916C28.3337 12.838 28.2649 12.589 28.1341 12.3716C28.0034 12.1543 27.8158 11.9767 27.5915 11.8583ZM8.88317 8.8416V8.28327C8.23035 8.1959 7.63638 7.86013 7.2249 7.34585C6.81341 6.83156 6.61613 6.1784 6.67412 5.52231C6.7321 4.86623 7.04088 4.25779 7.53619 3.82365C8.03149 3.38951 8.67515 3.16311 9.33317 3.1916C10.0176 3.19036 10.6755 3.45649 11.1665 3.93327C11.5999 3.5762 12.0758 3.27392 12.5832 3.03327C12.0162 2.38132 11.2649 1.91647 10.4285 1.69999C9.59203 1.48352 8.70961 1.52558 7.89754 1.82064C7.08546 2.11569 6.38185 2.64989 5.87945 3.35281C5.37704 4.05574 5.09941 4.89441 5.08317 5.75827C5.10066 6.81557 5.51167 7.82837 6.23592 8.59885C6.96017 9.36933 7.94564 9.84214 8.99984 9.92494C8.92906 9.56797 8.89002 9.20545 8.88317 8.8416ZM20.6415 1.52494C20.0688 1.52506 19.5019 1.63936 18.9739 1.86114C18.446 2.08292 17.9675 2.40774 17.5665 2.8166C18.1293 3.02197 18.6619 3.30227 19.1498 3.64994C19.5389 3.37988 19.9939 3.22046 20.4664 3.18869C20.939 3.15692 21.4112 3.25399 21.8329 3.46954C22.2546 3.68509 22.6099 4.01104 22.8609 4.41264C23.1119 4.81424 23.2492 5.27643 23.2582 5.74994C23.2529 6.2363 23.11 6.71123 22.8461 7.11975C22.5821 7.52827 22.2078 7.85367 21.7665 8.05827C21.8004 8.3152 21.8171 8.57411 21.8165 8.83327C21.8139 9.16822 21.786 9.5025 21.7332 9.83327C22.641 9.59988 23.4462 9.07292 24.0234 8.3344C24.6007 7.59589 24.9176 6.68725 24.9248 5.74994C24.9138 4.62269 24.4572 3.5456 23.6546 2.75397C22.852 1.96233 21.7688 1.52048 20.6415 1.52494Z" fill="#1E1E1E"/>
</svg>
